<?xml version="1.0" encoding="utf-8"?>
<!-- Generator: Adobe Illustrator 26.2.1, SVG Export Plug-In . SVG Version: 6.00 Build 0)  -->
<svg version="1.1" id="Layer_1" xmlns="http://www.w3.org/2000/svg" xmlns:xlink="http://www.w3.org/1999/xlink" x="0px" y="0px"
	 viewBox="0 0 339 310" style="enable-background:new 0 0 339 310;" xml:space="preserve">
<style type="text/css">
	.st0{fill:#F6921E;}
</style>
<g>
	<path class="st0" d="M124.4,180.2c-6.6,0-13-2-18.5-5.8c-7.8-5.4-12.8-13.9-13.8-23.3l-6.8-63.8C84.4,78.6,87,70,92.6,63.2
		c5.6-6.8,13.6-10.9,22.3-11.7l160.6-13.4c16.1-1.3,30.9,9.5,34.4,25.3l7.9,35.6c3.8,17.2-6.5,34.1-23.6,38.5l-161.7,41.6
		C129.8,179.9,127.1,180.2,124.4,180.2z M275.5,38.6l0,0.5L115,52.5c-8.5,0.7-16.2,4.7-21.7,11.3c-5.4,6.6-8,14.9-7.1,23.4l6.8,63.8
		c1,9.1,5.8,17.3,13.4,22.6c7.5,5.2,16.9,6.9,25.8,4.6L294,136.6c16.6-4.3,26.6-20.7,22.9-37.3L309,63.7
		c-3.4-15.3-17.8-25.8-33.4-24.5L275.5,38.6z"/>
</g>
<g>
	<path class="st0" d="M49.6,171.7l138.8,81.8c15.5,9.1,35.4,3.7,44.2-11.9l31.3-56c9.5-17,1.7-38.6-16.5-45.5L91.3,80.6
		c-16.1-6.1-34.2,1.6-40.9,17.5l-14.1,33.6C30.2,146.6,35.8,163.6,49.6,171.7z"/>
	<path class="st0" d="M204.6,258.4c-5.7,0-11.4-1.5-16.4-4.5L49.4,172.2c-13.9-8.2-19.7-25.6-13.5-40.6L50,98
		C56.8,81.7,75,73.9,91.5,80.2l156.1,59.4c8.8,3.4,15.8,10.4,19,19.3s2.4,18.7-2.2,27l-31.3,56c-4.3,7.7-11.4,13.2-19.9,15.5
		C210.4,258.1,207.5,258.4,204.6,258.4z M79.8,79c-12.3,0-23.9,7.3-29,19.4L36.8,132c-6.1,14.5-0.4,31.4,13.1,39.3l138.8,81.8
		c7.4,4.3,16,5.5,24.2,3.3c8.2-2.2,15.1-7.6,19.3-15l31.3-56c4.5-8,5.2-17.5,2.1-26.1c-3.1-8.6-9.8-15.4-18.4-18.7L91.1,81.1
		C87.4,79.7,83.6,79,79.8,79z"/>
</g>
</svg>
