<svg width="9" height="13" fill="none" xmlns="http://www.w3.org/2000/svg"><path fill-rule="evenodd" clip-rule="evenodd" d="M3.492 1.025A3.5 3.5 0 015.967 0h1.8a.5.5 0 01.5.5v2.4a.5.5 0 01-.5.5h-1.8a.1.1 0 00-.1.1v1.3h1.9a.5.5 0 01.485.621l-.6 2.4a.5.5 0 01-.485.379h-1.3v4.3a.5.5 0 01-.5.5h-2.4a.5.5 0 01-.5-.5V8.2h-1.3a.5.5 0 01-.5-.5V5.3a.5.5 0 01.5-.5h1.3V3.5a3.5 3.5 0 011.025-2.475zM5.967 1a2.5 2.5 0 00-2.5 2.5v1.8a.5.5 0 01-.5.5h-1.3v1.4h1.3a.5.5 0 01.5.5V12h1.4V7.7a.5.5 0 01.5-.5h1.41l.35-1.4h-1.76a.5.5 0 01-.5-.5V3.5a1.1 1.1 0 011.1-1.1h1.3V1h-1.3z" fill="#fff"/></svg>