<svg width="13" height="13" fill="none" xmlns="http://www.w3.org/2000/svg"><path d="M9.167 3.167a.667.667 0 111.333 0 .667.667 0 01-1.333 0z" fill="#fff"/><path fill-rule="evenodd" clip-rule="evenodd" d="M6.5 3.333a3.167 3.167 0 100 6.334 3.167 3.167 0 000-6.334zM4.333 6.5a2.167 2.167 0 114.334 0 2.167 2.167 0 01-4.334 0z" fill="#fff"/><path fill-rule="evenodd" clip-rule="evenodd" d="M10.005.389a31.814 31.814 0 00-7.01 0A2.927 2.927 0 00.413 2.944a30.614 30.614 0 000 7.112 2.927 2.927 0 002.582 2.555c2.31.259 4.7.259 7.01 0a2.927 2.927 0 002.582-2.555 30.61 30.61 0 000-7.112A2.927 2.927 0 0010.006.389zm-6.9.994a30.83 30.83 0 016.79 0 1.927 1.927 0 011.7 1.677 29.618 29.618 0 010 6.88 1.927 1.927 0 01-1.7 1.678 30.83 30.83 0 01-6.79 0 1.927 1.927 0 01-1.7-1.678 29.614 29.614 0 010-6.88 1.927 1.927 0 011.7-1.677z" fill="#fff"/></svg>