<svg width="14" height="14" fill="none" xmlns="http://www.w3.org/2000/svg"><path fill-rule="evenodd" clip-rule="evenodd" d="M1.833.333a1.833 1.833 0 100 3.667 1.833 1.833 0 000-3.667zM1 2.167a.833.833 0 111.667 0 .833.833 0 01-1.667 0zM0 4.833a.5.5 0 01.5-.5h2.667a.5.5 0 01.5.5V13.5a.5.5 0 01-.5.5H.5a.5.5 0 01-.5-.5V4.833zm1 .5V13h1.667V5.333H1zm3.667-.5a.5.5 0 01.5-.5h2.666a.5.5 0 01.5.5v.29l.29-.125a5.195 5.195 0 011.572-.397c1.85-.168 3.472 1.286 3.472 3.152V13.5a.5.5 0 01-.5.5H10.5a.5.5 0 01-.5-.5V8.833a.833.833 0 00-1.667 0V13.5a.5.5 0 01-.5.5H5.167a.5.5 0 01-.5-.5V4.833zm1 .5V13h1.666V8.833a1.833 1.833 0 013.667 0V13h1.667V7.753c0-1.27-1.108-2.272-2.381-2.156-.436.04-.867.148-1.269.32l-.987.423a.5.5 0 01-.697-.46v-.547H5.667z" fill="#fff"/></svg>